<svg width="49" height="49" viewBox="0 0 49 49" fill="none" xmlns="http://www.w3.org/2000/svg">
<path d="M5.66701 24.5474C5.66701 14.0539 14.1736 5.54736 24.667 5.54736C35.1604 5.54736 43.667 14.0539 43.667 24.5474C43.667 35.0408 35.1604 43.5474 24.667 43.5474C21.4533 43.5474 18.4214 42.748 15.7641 41.3366L8.26186 43.47C7.91319 43.5689 7.54445 43.5728 7.19373 43.4815C6.84301 43.3902 6.52302 43.2069 6.26683 42.9505C6.01063 42.6942 5.82751 42.3741 5.73638 42.0234C5.64525 41.6726 5.64941 41.3038 5.74844 40.9552L7.88187 33.4543C6.42367 30.7121 5.663 27.6531 5.66701 24.5474ZM16.5241 20.4759C16.5241 20.8359 16.6671 21.1811 16.9216 21.4356C17.1762 21.6901 17.5214 21.8331 17.8813 21.8331H31.4527C31.8127 21.8331 32.1579 21.6901 32.4124 21.4356C32.6669 21.1811 32.8099 20.8359 32.8099 20.4759C32.8099 20.116 32.6669 19.7708 32.4124 19.5163C32.1579 19.2618 31.8127 19.1188 31.4527 19.1188H17.8813C17.5214 19.1188 17.1762 19.2618 16.9216 19.5163C16.6671 19.7708 16.5241 20.116 16.5241 20.4759ZM17.8813 27.2617C17.5214 27.2617 17.1762 27.4046 16.9216 27.6591C16.6671 27.9137 16.5241 28.2589 16.5241 28.6188C16.5241 28.9787 16.6671 29.3239 16.9216 29.5784C17.1762 29.833 17.5214 29.9759 17.8813 29.9759H26.0241C26.3841 29.9759 26.7293 29.833 26.9838 29.5784C27.2383 29.3239 27.3813 28.9787 27.3813 28.6188C27.3813 28.2589 27.2383 27.9137 26.9838 27.6591C26.7293 27.4046 26.3841 27.2617 26.0241 27.2617H17.8813Z" fill="#9E00F8"/>
</svg>
