<svg width="25" height="25" viewBox="0 0 25 25" fill="none" xmlns="http://www.w3.org/2000/svg">
<g clip-path="url(#clip0_52_365)">
<path d="M15.1205 3.20926C15.3103 3.26236 15.4878 3.35236 15.6428 3.47409C15.7978 3.59583 15.9273 3.74692 16.0239 3.91873C16.1204 4.09054 16.1822 4.2797 16.2057 4.4754C16.2291 4.6711 16.2137 4.8695 16.1605 5.05926L11.7295 20.8463C11.6221 21.2294 11.3669 21.5541 11.02 21.7491C10.6732 21.944 10.2631 21.9932 9.87997 21.8858C9.49686 21.7783 9.17212 21.5231 8.97717 21.1763C8.78223 20.8294 8.73306 20.4194 8.84047 20.0363L13.2715 4.24726C13.3247 4.05754 13.4148 3.88017 13.5365 3.72527C13.6583 3.57037 13.8094 3.44098 13.9812 3.34449C14.153 3.248 14.3421 3.18631 14.5378 3.16294C14.7334 3.13956 14.9318 3.15496 15.1215 3.20826L15.1205 3.20926ZM8.06047 7.24426C8.34137 7.52551 8.49915 7.90676 8.49915 8.30426C8.49915 8.70176 8.34137 9.08301 8.06047 9.36426L4.88047 12.5473L8.06247 15.7293C8.34373 16.0107 8.50169 16.3923 8.5016 16.7901C8.5015 17.188 8.34336 17.5695 8.06197 17.8508C7.78057 18.132 7.39897 18.29 7.00112 18.2899C6.60326 18.2898 6.22173 18.1317 5.94047 17.8503L1.69747 13.6073C1.41657 13.326 1.25879 12.9448 1.25879 12.5473C1.25879 12.1498 1.41657 11.7685 1.69747 11.4873L5.93947 7.24426C6.07877 7.10487 6.24417 6.99429 6.42622 6.91885C6.60827 6.84341 6.80341 6.80458 7.00047 6.80458C7.19753 6.80458 7.39267 6.84341 7.57472 6.91885C7.75677 6.99429 7.92117 7.10487 8.06047 7.24426ZM16.9405 9.36426C16.7931 9.22694 16.6749 9.06133 16.5929 8.87734C16.5109 8.69334 16.4668 8.49471 16.4633 8.2933C16.4597 8.0919 16.4968 7.89184 16.5722 7.70506C16.6477 7.51829 16.76 7.34862 16.9024 7.20618C17.0448 7.06375 17.2145 6.95146 17.4013 6.87601C17.5881 6.80057 17.7881 6.76352 17.9895 6.76708C18.1909 6.77063 18.3895 6.81471 18.5735 6.8967C18.7575 6.97868 18.9231 7.09689 19.0605 7.24426L23.3035 11.4863C23.5847 11.7676 23.7426 12.149 23.7426 12.5468C23.7426 12.9445 23.5847 13.326 23.3035 13.6073L19.0615 17.8503C18.9222 17.9896 18.7569 18.1001 18.5749 18.1756C18.3929 18.251 18.1978 18.2898 18.0008 18.2899C17.8038 18.2899 17.6087 18.2512 17.4267 18.1758C17.2447 18.1005 17.0793 17.99 16.94 17.8508C16.8006 17.7115 16.6901 17.5461 16.6147 17.3642C16.5392 17.1822 16.5004 16.9871 16.5003 16.7901C16.5003 16.5931 16.5391 16.398 16.6144 16.216C16.6897 16.034 16.8002 15.8686 16.9395 15.7293L20.1215 12.5473L16.9405 9.36426Z" fill="url(#paint0_linear_52_365)"/>
</g>
<defs>
<linearGradient id="paint0_linear_52_365" x1="9.69024" y1="8.31935" x2="13.979" y2="16.5308" gradientUnits="userSpaceOnUse">
<stop stop-color="#2B91FF"/>
<stop offset="1" stop-color="#165EC1"/>
</linearGradient>
<clipPath id="clip0_52_365">
<rect width="24" height="24" fill="white" transform="translate(0.5 0.547363)"/>
</clipPath>
</defs>
</svg>
