<svg width="25" height="25" viewBox="0 0 25 25" fill="none" xmlns="http://www.w3.org/2000/svg">
<path d="M19.5 18.5474C19.5 18.2821 19.3946 18.0279 19.207 17.8403C19.0429 17.6762 18.8276 17.5749 18.5986 17.5522L18.5 17.5474C18.2348 17.5474 17.9805 17.6528 17.793 17.8403C17.6054 18.0279 17.5 18.2821 17.5 18.5474L17.5049 18.646C17.5276 18.875 17.6288 19.0903 17.793 19.2544C17.9805 19.4419 18.2348 19.5474 18.5 19.5474C18.7652 19.5474 19.0195 19.4419 19.207 19.2544C19.3946 19.0669 19.5 18.8126 19.5 18.5474ZM13.5 12.5474C13.5 12.2821 13.3946 12.0279 13.207 11.8403C13.0195 11.6528 12.7652 11.5474 12.5 11.5474C12.2348 11.5474 11.9805 11.6528 11.793 11.8403C11.6054 12.0279 11.5 12.2821 11.5 12.5474C11.5 12.8126 11.6054 13.0669 11.793 13.2544C11.9805 13.4419 12.2348 13.5474 12.5 13.5474C12.7652 13.5474 13.0195 13.4419 13.207 13.2544C13.3946 13.0669 13.5 12.8126 13.5 12.5474ZM5.50488 18.646C5.52757 18.875 5.62883 19.0903 5.79297 19.2544C5.98051 19.4419 6.23478 19.5474 6.5 19.5474C6.76522 19.5474 7.01949 19.4419 7.20703 19.2544C7.39457 19.0669 7.5 18.8126 7.5 18.5474L7.49512 18.4487C7.47243 18.2197 7.37117 18.0045 7.20703 17.8403C7.04289 17.6762 6.82763 17.5749 6.59863 17.5522L6.5 17.5474C6.23478 17.5474 5.98051 17.6528 5.79297 17.8403C5.60543 18.0279 5.5 18.2821 5.5 18.5474L5.50488 18.646ZM19.5 6.54736C19.5 6.28215 19.3946 6.02787 19.207 5.84033C19.0429 5.67619 18.8276 5.57494 18.5986 5.55225L18.5 5.54736C18.2348 5.54736 17.9805 5.6528 17.793 5.84033C17.6054 6.02787 17.5 6.28215 17.5 6.54736L17.5049 6.646C17.5276 6.87499 17.6288 7.09025 17.793 7.25439C17.9805 7.44193 18.2348 7.54736 18.5 7.54736L18.5986 7.54248C18.8276 7.51979 19.0429 7.41854 19.207 7.25439C19.3946 7.06686 19.5 6.81258 19.5 6.54736ZM15.5 12.5474C15.5 13.343 15.1837 14.1058 14.6211 14.6685C14.0585 15.2311 13.2957 15.5474 12.5 15.5474C11.7043 15.5474 10.9415 15.2311 10.3789 14.6685C9.8163 14.1058 9.5 13.343 9.5 12.5474C9.5 12.0959 9.60413 11.6561 9.79492 11.2563L7.79004 9.25146C7.6954 9.29661 7.59884 9.33658 7.5 9.37158V15.7222C7.91751 15.87 8.30195 16.1071 8.62109 16.4263C8.94016 16.7453 9.17642 17.13 9.32422 17.5474H15.6758C15.8236 17.13 16.0598 16.7453 16.3789 16.4263C16.6981 16.1071 17.0825 15.87 17.5 15.7222V9.37158C17.0826 9.22378 16.698 8.98752 16.3789 8.66846C16.0598 8.34939 15.8236 7.96475 15.6758 7.54736H9.32422C9.28922 7.6462 9.24925 7.74277 9.2041 7.8374L11.209 9.84229C11.6088 9.65149 12.0486 9.54736 12.5 9.54736C13.2957 9.54736 14.0585 9.86366 14.6211 10.4263C15.1837 10.9889 15.5 11.7517 15.5 12.5474ZM5.50488 6.646C5.52757 6.875 5.62883 7.09025 5.79297 7.25439C5.9805 7.44193 6.23478 7.54736 6.5 7.54736L6.59863 7.54248C6.82763 7.51979 7.04289 7.41854 7.20703 7.25439C7.39457 7.06686 7.5 6.81258 7.5 6.54736L7.49512 6.44873C7.47243 6.21973 7.37117 6.00448 7.20703 5.84033C7.04289 5.67619 6.82763 5.57494 6.59863 5.55225L6.5 5.54736C6.23478 5.54736 5.9805 5.6528 5.79297 5.84033C5.60543 6.02787 5.5 6.28215 5.5 6.54736L5.50488 6.646ZM21.5 6.54736C21.5 7.34301 21.1837 8.10585 20.6211 8.66846C20.302 8.98752 19.9174 9.22378 19.5 9.37158V15.7222C19.9175 15.87 20.3019 16.1071 20.6211 16.4263C21.1837 16.9889 21.5 17.7517 21.5 18.5474C21.5 19.343 21.1837 20.1058 20.6211 20.6685C20.0585 21.2311 19.2957 21.5474 18.5 21.5474C17.7043 21.5474 16.9415 21.2311 16.3789 20.6685C16.0598 20.3494 15.8236 19.9648 15.6758 19.5474H9.32422C9.17642 19.9648 8.94016 20.3494 8.62109 20.6685C8.05849 21.2311 7.29565 21.5474 6.5 21.5474C5.70435 21.5474 4.94151 21.2311 4.37891 20.6685C3.88671 20.1763 3.58291 19.5309 3.51465 18.8442L3.5 18.5474C3.5 17.7517 3.8163 16.9889 4.37891 16.4263C4.69805 16.1071 5.08249 15.87 5.5 15.7222V9.37158C5.08261 9.22378 4.69797 8.98752 4.37891 8.66846C3.88671 8.17626 3.58291 7.53088 3.51465 6.84424L3.5 6.54736C3.5 5.75171 3.8163 4.98888 4.37891 4.42627C4.94152 3.86366 5.70435 3.54736 6.5 3.54736L6.79688 3.56201C7.48351 3.63027 8.1289 3.93407 8.62109 4.42627C8.94016 4.74534 9.17642 5.12997 9.32422 5.54736H15.6758C15.8236 5.12997 16.0598 4.74534 16.3789 4.42627C16.9415 3.86366 17.7044 3.54736 18.5 3.54736L18.7969 3.56201C19.4835 3.63027 20.1289 3.93407 20.6211 4.42627C21.1837 4.98888 21.5 5.75171 21.5 6.54736Z" fill="url(#paint0_linear_52_369)"/>
<defs>
<linearGradient id="paint0_linear_52_369" x1="10.25" y1="8.49736" x2="14.75" y2="15.6974" gradientUnits="userSpaceOnUse">
<stop stop-color="#2B91FF"/>
<stop offset="1" stop-color="#165EC1"/>
</linearGradient>
</defs>
</svg>
