<svg width="65" height="65" viewBox="0 0 65 65" fill="none" xmlns="http://www.w3.org/2000/svg">
<rect x="0.799805" y="0.547363" width="64" height="64" rx="32" fill="url(#paint0_linear_27_486)"/>
<path d="M39.8665 31.7308L42.4831 29.1141L36.2331 22.8641L33.6165 25.4808L26.7165 18.5975C25.4165 17.2975 23.2998 17.2975 21.9998 18.5975L18.8331 21.7641C17.5331 23.0641 17.5331 25.1808 18.8331 26.4808L25.7165 33.3641L18.0498 41.0475C17.8831 41.2141 17.7998 41.4141 17.7998 41.6475V46.7141C17.7998 47.1808 18.1665 47.5475 18.6331 47.5475H23.6998C23.9165 47.5475 24.1331 47.4641 24.2831 47.2975L31.9831 39.5975L38.8665 46.4808C41.0665 48.6808 43.4665 46.5975 43.5831 46.4808L46.7498 43.3141C48.0498 42.0141 48.0498 39.8975 46.7498 38.5975L39.8665 31.7308ZM28.0998 30.9975L21.1998 24.1141L24.3498 20.9475L26.4665 23.0641L25.6831 23.8808C25.3715 24.1924 25.1964 24.6151 25.1964 25.0558C25.1964 25.4965 25.3715 25.9192 25.6831 26.2308C25.9948 26.5424 26.4174 26.7175 26.8581 26.7175C27.2988 26.7175 27.7215 26.5424 28.0331 26.2308L28.8331 25.4308L31.2498 27.8475L28.0998 30.9975ZM41.2331 44.1475L34.3498 37.2641L37.5165 34.0975L39.9331 36.5141L39.1331 37.3141C38.9788 37.4684 38.8564 37.6516 38.7729 37.8532C38.6894 38.0548 38.6464 38.2709 38.6464 38.4891C38.6464 38.7074 38.6894 38.9234 38.7729 39.125C38.8564 39.3266 38.9788 39.5098 39.1331 39.6641C39.2874 39.8184 39.4706 39.9408 39.6722 40.0243C39.8738 40.1079 40.0899 40.1508 40.3081 40.1508C40.5264 40.1508 40.7424 40.1079 40.944 40.0243C41.1456 39.9408 41.3288 39.8184 41.4831 39.6641L42.2831 38.8641L44.3998 40.9808L41.2331 44.1475ZM47.3165 24.2808C47.471 24.1266 47.5936 23.9435 47.6772 23.7418C47.7608 23.5402 47.8039 23.3241 47.8039 23.1058C47.8039 22.8875 47.7608 22.6714 47.6772 22.4698C47.5936 22.2681 47.471 22.085 47.3165 21.9308L43.4165 18.0308C42.6331 17.2475 41.5498 17.5475 41.0665 18.0308L38.0165 21.0808L44.2665 27.3308L47.3165 24.2808Z" fill="white"/>
<defs>
<linearGradient id="paint0_linear_27_486" x1="24.7998" y1="18.1474" x2="40.7998" y2="43.7474" gradientUnits="userSpaceOnUse">
<stop stop-color="#2B91FF"/>
<stop offset="1" stop-color="#165EC1"/>
</linearGradient>
</defs>
</svg>
