<svg width="64" height="65" viewBox="0 0 64 65" fill="none" xmlns="http://www.w3.org/2000/svg">
<rect y="0.547363" width="64" height="64" rx="32" fill="url(#paint0_linear_27_476)"/>
<path d="M36.0503 29.2141L33.6003 21.1475C33.117 19.5641 30.8837 19.5641 30.417 21.1475L27.9503 29.2141H20.5337C18.917 29.2141 18.2503 31.2975 19.567 32.2308L25.6337 36.5641L23.2503 44.2475C22.767 45.7975 24.567 47.0475 25.8503 46.0641L32.0003 41.3975L38.1503 46.0808C39.4337 47.0641 41.2337 45.8141 40.7503 44.2641L38.367 36.5808L44.4337 32.2475C45.7503 31.2975 45.0837 29.2308 43.467 29.2308H36.0503V29.2141Z" fill="white"/>
<defs>
<linearGradient id="paint0_linear_27_476" x1="24" y1="18.1474" x2="40" y2="43.7474" gradientUnits="userSpaceOnUse">
<stop stop-color="#2B91FF"/>
<stop offset="1" stop-color="#165EC1"/>
</linearGradient>
</defs>
</svg>
