<svg width="33" height="33" viewBox="0 0 33 33" fill="none" xmlns="http://www.w3.org/2000/svg">
<path fill-rule="evenodd" clip-rule="evenodd" d="M0.0947266 5.77368C0.0947266 3.01226 2.3333 0.773682 5.09473 0.773682H27.0947C29.8561 0.773682 32.0947 3.01226 32.0947 5.77368V27.7737C32.0947 30.5351 29.8561 32.7737 27.0947 32.7737H5.09473C2.3333 32.7737 0.0947266 30.5351 0.0947266 27.7737V5.77368ZM8.09473 16.9412C8.09473 12.5375 11.6666 8.96568 16.0703 8.96568C20.4739 8.96568 24.0458 12.5375 24.0947 16.9412C24.0947 20.4642 21.8439 23.4489 18.6635 24.5253C18.2721 24.5742 18.1253 24.3296 18.1253 24.1339V21.932C18.1253 21.1981 17.8807 20.7088 17.5871 20.4642C19.3486 20.2684 21.2079 19.6324 21.2079 16.5498C21.2079 15.669 20.8654 14.9351 20.3761 14.3969C20.3799 14.3815 20.3853 14.3622 20.3917 14.3392C20.4666 14.069 20.684 13.2848 20.2782 12.2929C20.2782 12.2929 19.5932 12.0972 18.0764 13.1247C17.4403 12.9779 16.7552 12.8801 16.0703 12.8801C15.3853 12.8801 14.7003 12.929 14.0641 13.1247C12.5473 12.0972 11.8623 12.2929 11.8623 12.2929C11.4299 13.35 11.7052 14.1712 11.7616 14.3394L11.7645 14.3479C11.2262 14.9351 10.9326 15.6201 10.9326 16.5009C10.9326 19.5834 12.792 20.2684 14.5535 20.4642C14.3577 20.6599 14.1131 21.0024 14.0641 21.5406C13.6238 21.7363 12.4984 22.0788 11.7645 20.8556C11.7645 20.8556 11.3241 20.0727 10.5412 20.0238C10.5412 20.0238 9.75836 20.0238 10.4923 20.5131C10.4923 20.5131 11.0305 20.7577 11.373 21.6874C11.373 21.6874 11.8623 23.2531 14.0641 22.7638V24.1339C14.0641 24.3296 13.9174 24.5742 13.5259 24.5253C10.3944 23.4489 8.09473 20.4642 8.09473 16.9412Z" fill="white"/>
</svg>
