<svg width="48" height="49" viewBox="0 0 48 49" fill="none" xmlns="http://www.w3.org/2000/svg">
<path d="M24 4.54736C35.046 4.54736 44 13.5014 44 24.5474C44 35.5934 35.046 44.5474 24 44.5474C12.954 44.5474 4 35.5934 4 24.5474C4 13.5014 12.954 4.54736 24 4.54736ZM24 14.5474C22.974 14.5474 21.984 14.7014 21.054 14.9874C21.7918 15.3198 22.4379 15.8263 22.9368 16.4635C23.4357 17.1007 23.7725 17.8494 23.9182 18.6454C24.064 19.4414 24.0144 20.2609 23.7736 21.0335C23.5329 21.8061 23.1082 22.5087 22.5361 23.081C21.9639 23.6533 21.2615 24.0782 20.4889 24.3192C19.7164 24.5601 18.8969 24.61 18.1009 24.4645C17.3048 24.319 16.556 23.9824 15.9187 23.4837C15.2814 22.985 14.7747 22.3391 14.442 21.6014C13.8218 23.6132 13.8523 25.7694 14.5293 27.7629C15.2062 29.7563 16.4951 31.4853 18.2121 32.7034C19.9292 33.9215 21.9869 34.5667 24.092 34.5469C26.1972 34.5272 28.2424 33.8435 29.9363 32.5934C31.6302 31.3433 32.8864 29.5904 33.5258 27.5846C34.1652 25.5788 34.1553 23.4224 33.4974 21.4225C32.8396 19.4227 31.5674 17.6815 29.862 16.447C28.1567 15.2125 26.1053 14.5477 24 14.5474Z" fill="#F15C00"/>
</svg>
