<svg width="175" height="50" viewBox="0 0 175 50" fill="none" xmlns="http://www.w3.org/2000/svg">
<circle cx="24.7737" cy="24.7737" r="24.7737" fill="url(#paint0_radial_27_353)" fill-opacity="0.2"/>
<circle cx="24.7737" cy="24.7738" r="17.6955" fill="url(#paint1_radial_27_353)" fill-opacity="0.5"/>
<circle cx="24.7736" cy="24.7737" r="10.6173" fill="url(#paint2_radial_27_353)"/>
<circle cx="24.7735" cy="24.7737" r="3.53911" fill="#02087C"/>
<path d="M73.3373 27.2737H68.8979V11.4522H73.3373V27.2737ZM82.9483 27.2737H70.1022V23.2829H82.9483V27.2737ZM82.5941 21.2993H70.1022V17.3321H82.5941V21.2993ZM82.9483 15.443H70.1022V11.4522H82.9483V15.443ZM88.6496 27.2737H84.2102V11.4522H88.933L93.3252 17.3794L95.6394 21.0159H95.9464L95.7339 17.5683V11.4522H100.173V27.2737H95.4505L90.7749 21.1812L88.7677 18.0642H88.4607L88.6496 21.0868V27.2737ZM109.249 27.5098C107.596 27.5098 106.179 27.1792 104.998 26.518C103.818 25.8411 102.912 24.8965 102.283 23.6843C101.669 22.4564 101.362 21.0159 101.362 19.3629C101.362 17.7099 101.724 16.2774 102.448 15.0652C103.172 13.8372 104.219 12.8927 105.589 12.2315C106.958 11.5545 108.603 11.2161 110.524 11.2161C112.319 11.2161 113.854 11.4679 115.129 11.9717C116.404 12.4755 117.38 13.1996 118.057 14.1442C118.734 15.073 119.072 16.1908 119.072 17.4974V17.6627H114.113V17.4974C114.113 16.7575 113.846 16.238 113.311 15.9389C112.775 15.624 111.807 15.4666 110.406 15.4666C109.273 15.4666 108.391 15.5768 107.761 15.7972C107.147 16.0019 106.714 16.3876 106.462 16.9543C106.211 17.5053 106.085 18.3082 106.085 19.3629C106.085 20.402 106.203 21.2048 106.439 21.7716C106.675 22.3383 107.084 22.7319 107.667 22.9523C108.265 23.1569 109.099 23.2593 110.17 23.2593C111.445 23.2593 112.405 23.2199 113.051 23.1412C113.696 23.0467 114.121 22.8578 114.326 22.5745C114.546 22.2754 114.657 21.8188 114.657 21.2048V20.3311L119.096 20.2367V20.5673L115.247 23.8969H114.727C114.586 24.5108 114.318 25.0933 113.925 25.6443C113.547 26.1953 112.98 26.644 112.224 26.9903C111.484 27.3367 110.493 27.5098 109.249 27.5098ZM119.096 27.2737H114.964V22.7634L114.657 22.2675V18.8434H119.096V27.2737ZM119.096 21.8897H109.745V18.6309H119.096V21.8897ZM124.453 27.2737H119.471L126.295 11.4522H132.648L139.496 27.2737H134.395L130.64 18.135L129.601 15.4666H129.294L128.279 18.135L124.453 27.2737ZM135.174 24.3455H123.509V20.3547H135.174V24.3455ZM147.622 27.5098C145.969 27.5098 144.552 27.1792 143.371 26.518C142.191 25.8411 141.285 24.8965 140.656 23.6843C140.042 22.4564 139.735 21.0159 139.735 19.3629C139.735 17.7099 140.097 16.2774 140.821 15.0652C141.545 13.8372 142.592 12.8927 143.962 12.2315C145.331 11.5545 146.976 11.2161 148.897 11.2161C150.692 11.2161 152.227 11.4679 153.502 11.9717C154.777 12.4755 155.753 13.1996 156.43 14.1442C157.107 15.073 157.445 16.1908 157.445 17.4974V17.6627H152.486V17.4974C152.486 16.7575 152.219 16.238 151.684 15.9389C151.148 15.624 150.18 15.4666 148.779 15.4666C147.646 15.4666 146.764 15.5768 146.134 15.7972C145.52 16.0019 145.087 16.3876 144.835 16.9543C144.584 17.5053 144.458 18.3082 144.458 19.3629C144.458 20.402 144.576 21.2048 144.812 21.7716C145.048 22.3383 145.457 22.7319 146.04 22.9523C146.638 23.1569 147.472 23.2593 148.543 23.2593C149.818 23.2593 150.778 23.2199 151.424 23.1412C152.069 23.0467 152.494 22.8578 152.699 22.5745C152.919 22.2754 153.03 21.8188 153.03 21.2048V20.3311L157.469 20.2367V20.5673L153.62 23.8969H153.1C152.959 24.5108 152.691 25.0933 152.298 25.6443C151.92 26.1953 151.353 26.644 150.597 26.9903C149.857 27.3367 148.866 27.5098 147.622 27.5098ZM157.469 27.2737H153.337V22.7634L153.03 22.2675V18.8434H157.469V27.2737ZM157.469 21.8897H148.118V18.6309H157.469V21.8897ZM163.228 27.2737H158.788V11.4522H163.228V27.2737ZM172.839 27.2737H159.993V23.2829H172.839V27.2737ZM172.485 21.2993H159.993V17.3321H172.485V21.2993ZM172.839 15.443H159.993V11.4522H172.839V15.443Z" fill="white"/>
<path d="M70.4339 33.3018C70.6744 32.8831 71.0307 32.5358 71.5027 32.2597C71.9837 31.9747 72.5404 31.8322 73.1727 31.8322C73.8229 31.8322 74.4108 31.988 74.9363 32.2998C75.4707 32.6115 75.8893 33.0524 76.1921 33.6224C76.4949 34.1835 76.6463 34.8382 76.6463 35.5863C76.6463 36.3256 76.4949 36.9847 76.1921 37.5636C75.8893 38.1425 75.4707 38.5923 74.9363 38.913C74.4108 39.2336 73.8229 39.3939 73.1727 39.3939C72.5493 39.3939 71.9971 39.2559 71.5161 38.9798C71.044 38.6947 70.6833 38.3429 70.4339 37.9243V42.7473H69.2182V31.9524H70.4339V33.3018ZM75.4039 35.5863C75.4039 35.0341 75.2925 34.5531 75.0699 34.1434C74.8472 33.7337 74.5444 33.422 74.1614 33.2082C73.7873 32.9945 73.3731 32.8876 72.9189 32.8876C72.4736 32.8876 72.0594 32.9989 71.6764 33.2216C71.3023 33.4354 70.9995 33.7515 70.7679 34.1702C70.5453 34.5799 70.4339 35.0564 70.4339 35.5997C70.4339 36.1519 70.5453 36.6373 70.7679 37.0559C70.9995 37.4656 71.3023 37.7818 71.6764 38.0045C72.0594 38.2182 72.4736 38.3251 72.9189 38.3251C73.3731 38.3251 73.7873 38.2182 74.1614 38.0045C74.5444 37.7818 74.8472 37.4656 75.0699 37.0559C75.2925 36.6373 75.4039 36.1474 75.4039 35.5863ZM79.4624 33.1414C79.6761 32.7228 79.979 32.3977 80.3709 32.1662C80.7717 31.9346 81.2571 31.8188 81.8271 31.8188V33.0746H81.5065C80.1437 33.0746 79.4624 33.8139 79.4624 35.2924V39.2737H78.2466V31.9524H79.4624V33.1414ZM86.4236 39.3939C85.7377 39.3939 85.1143 39.2381 84.5532 38.9263C84.0009 38.6146 83.5645 38.1737 83.2439 37.6037C82.9321 37.0247 82.7763 36.3567 82.7763 35.5997C82.7763 34.8515 82.9366 34.1924 83.2572 33.6224C83.5868 33.0435 84.0321 32.6026 84.5932 32.2998C85.1544 31.988 85.7823 31.8322 86.477 31.8322C87.1717 31.8322 87.7996 31.988 88.3608 32.2998C88.9219 32.6026 89.3628 33.039 89.6834 33.609C90.0129 34.1791 90.1777 34.8426 90.1777 35.5997C90.1777 36.3567 90.0085 37.0247 89.67 37.6037C89.3405 38.1737 88.8907 38.6146 88.3207 38.9263C87.7507 39.2381 87.1183 39.3939 86.4236 39.3939ZM86.4236 38.3251C86.86 38.3251 87.2697 38.2227 87.6527 38.0178C88.0357 37.813 88.3429 37.5057 88.5745 37.096C88.815 36.6863 88.9352 36.1875 88.9352 35.5997C88.9352 35.0118 88.8195 34.5131 88.5879 34.1034C88.3563 33.6937 88.0535 33.3908 87.6794 33.1949C87.3053 32.99 86.9001 32.8876 86.4636 32.8876C86.0183 32.8876 85.6086 32.99 85.2345 33.1949C84.8693 33.3908 84.5754 33.6937 84.3528 34.1034C84.1301 34.5131 84.0188 35.0118 84.0188 35.5997C84.0188 36.1964 84.1256 36.6997 84.3394 37.1094C84.5621 37.5191 84.856 37.8263 85.2212 38.0312C85.5863 38.2271 85.9871 38.3251 86.4236 38.3251ZM93.2592 32.9544V37.2697C93.2592 37.6259 93.3349 37.8798 93.4863 38.0312C93.6377 38.1737 93.9005 38.245 94.2745 38.245H95.1697V39.2737H94.0741C93.3972 39.2737 92.8896 39.1178 92.5511 38.8061C92.2126 38.4943 92.0434 37.9822 92.0434 37.2697V32.9544H91.0949V31.9524H92.0434V30.1087H93.2592V31.9524H95.1697V32.9544H93.2592ZM99.8357 39.3939C99.1499 39.3939 98.5265 39.2381 97.9653 38.9263C97.4131 38.6146 96.9767 38.1737 96.6561 37.6037C96.3443 37.0247 96.1885 36.3567 96.1885 35.5997C96.1885 34.8515 96.3488 34.1924 96.6694 33.6224C96.999 33.0435 97.4443 32.6026 98.0054 32.2998C98.5665 31.988 99.1945 31.8322 99.8892 31.8322C100.584 31.8322 101.212 31.988 101.773 32.2998C102.334 32.6026 102.775 33.039 103.096 33.609C103.425 34.1791 103.59 34.8426 103.59 35.5997C103.59 36.3567 103.421 37.0247 103.082 37.6037C102.753 38.1737 102.303 38.6146 101.733 38.9263C101.163 39.2381 100.53 39.3939 99.8357 39.3939ZM99.8357 38.3251C100.272 38.3251 100.682 38.2227 101.065 38.0178C101.448 37.813 101.755 37.5057 101.987 37.096C102.227 36.6863 102.347 36.1875 102.347 35.5997C102.347 35.0118 102.232 34.5131 102 34.1034C101.768 33.6937 101.466 33.3908 101.092 33.1949C100.718 32.99 100.312 32.8876 99.8758 32.8876C99.4305 32.8876 99.0208 32.99 98.6467 33.1949C98.2815 33.3908 97.9876 33.6937 97.7649 34.1034C97.5423 34.5131 97.4309 35.0118 97.4309 35.5997C97.4309 36.1964 97.5378 36.6997 97.7516 37.1094C97.9742 37.5191 98.2682 37.8263 98.6333 38.0312C98.9985 38.2271 99.3993 38.3251 99.8357 38.3251ZM104.734 35.5997C104.734 34.8426 104.886 34.1835 105.188 33.6224C105.491 33.0524 105.91 32.6115 106.444 32.2998C106.988 31.988 107.607 31.8322 108.301 31.8322C109.201 31.8322 109.94 32.0504 110.519 32.4868C111.107 32.9232 111.494 33.5289 111.681 34.3038H110.372C110.247 33.8584 110.002 33.5066 109.637 33.2483C109.281 32.99 108.836 32.8609 108.301 32.8609C107.607 32.8609 107.045 33.1014 106.618 33.5823C106.19 34.0544 105.977 34.7268 105.977 35.5997C105.977 36.4814 106.19 37.1628 106.618 37.6438C107.045 38.1247 107.607 38.3652 108.301 38.3652C108.836 38.3652 109.281 38.2405 109.637 37.9911C109.994 37.7417 110.238 37.3855 110.372 36.9223H111.681C111.485 37.6705 111.094 38.2717 110.506 38.7259C109.918 39.1713 109.183 39.3939 108.301 39.3939C107.607 39.3939 106.988 39.2381 106.444 38.9263C105.91 38.6146 105.491 38.1737 105.188 37.6037C104.886 37.0337 104.734 36.3657 104.734 35.5997ZM116.497 39.3939C115.811 39.3939 115.187 39.2381 114.626 38.9263C114.074 38.6146 113.638 38.1737 113.317 37.6037C113.005 37.0247 112.849 36.3567 112.849 35.5997C112.849 34.8515 113.01 34.1924 113.33 33.6224C113.66 33.0435 114.105 32.6026 114.666 32.2998C115.227 31.988 115.855 31.8322 116.55 31.8322C117.245 31.8322 117.873 31.988 118.434 32.2998C118.995 32.6026 119.436 33.039 119.756 33.609C120.086 34.1791 120.251 34.8426 120.251 35.5997C120.251 36.3567 120.082 37.0247 119.743 37.6037C119.414 38.1737 118.964 38.6146 118.394 38.9263C117.824 39.2381 117.191 39.3939 116.497 39.3939ZM116.497 38.3251C116.933 38.3251 117.343 38.2227 117.726 38.0178C118.109 37.813 118.416 37.5057 118.648 37.096C118.888 36.6863 119.008 36.1875 119.008 35.5997C119.008 35.0118 118.892 34.5131 118.661 34.1034C118.429 33.6937 118.127 33.3908 117.752 33.1949C117.378 32.99 116.973 32.8876 116.537 32.8876C116.091 32.8876 115.682 32.99 115.308 33.1949C114.942 33.3908 114.648 33.6937 114.426 34.1034C114.203 34.5131 114.092 35.0118 114.092 35.5997C114.092 36.1964 114.199 36.6997 114.412 37.1094C114.635 37.5191 114.929 37.8263 115.294 38.0312C115.659 38.2271 116.06 38.3251 116.497 38.3251ZM123.065 29.3873V39.2737H121.849V29.3873H123.065Z" fill="white"/>
<defs>
<radialGradient id="paint0_radial_27_353" cx="0" cy="0" r="1" gradientUnits="userSpaceOnUse" gradientTransform="translate(24.7737 7.01923) rotate(90) scale(42.5283)">
<stop stop-color="white"/>
<stop offset="1" stop-color="#C6FFFE"/>
</radialGradient>
<radialGradient id="paint1_radial_27_353" cx="0" cy="0" r="1" gradientUnits="userSpaceOnUse" gradientTransform="translate(24.7737 12.092) rotate(90) scale(30.3773)">
<stop stop-color="white"/>
<stop offset="1" stop-color="#C6FFFE"/>
</radialGradient>
<radialGradient id="paint2_radial_27_353" cx="0" cy="0" r="1" gradientUnits="userSpaceOnUse" gradientTransform="translate(24.7736 17.1646) rotate(90) scale(18.2264)">
<stop stop-color="white"/>
<stop offset="1" stop-color="#C6FFFE"/>
</radialGradient>
</defs>
</svg>
