<svg width="139" height="61" viewBox="0 0 139 61" fill="none" xmlns="http://www.w3.org/2000/svg">
<g filter="url(#filter0_d_58_357)">
<path d="M7.38477 23.1C7.38477 10.3422 17.727 0 30.4848 0H108.785C121.543 0 131.885 10.3422 131.885 23.1C131.885 35.8578 121.543 46.2 108.785 46.2H30.4848C17.727 46.2 7.38477 35.8578 7.38477 23.1Z" fill="url(#paint0_linear_58_357)" shape-rendering="crispEdges"/>
<path d="M42.9145 15.2327V30.1001H39.9325V20.4299L35.9494 30.1001H33.6916L29.6872 20.4299V30.1001H26.7052V15.2327H30.0919L34.8205 26.2874L39.5491 15.2327H42.9145ZM45.0959 24.1574C45.0959 22.9646 45.3302 21.9067 45.7988 20.9837C46.2816 20.0607 46.9277 19.3507 47.7371 18.8537C48.5607 18.3567 49.4766 18.1082 50.4848 18.1082C51.3652 18.1082 52.132 18.2857 52.7852 18.6407C53.4526 18.9957 53.9851 19.443 54.3827 19.9826V18.2999H57.386V30.1001H54.3827V28.3748C53.9993 28.9286 53.4668 29.3901 52.7852 29.7593C52.1178 30.1143 51.3439 30.2918 50.4635 30.2918C49.4695 30.2918 48.5607 30.0362 47.7371 29.525C46.9277 29.0138 46.2816 28.2967 45.7988 27.3737C45.3302 26.4365 45.0959 25.3644 45.0959 24.1574ZM54.3827 24.2C54.3827 23.4758 54.2407 22.8581 53.9567 22.3469C53.6727 21.8215 53.2893 21.4239 52.8065 21.1541C52.3237 20.8701 51.8054 20.7281 51.2516 20.7281C50.6978 20.7281 50.1866 20.863 49.718 21.1328C49.2494 21.4026 48.866 21.8002 48.5678 22.3256C48.2838 22.8368 48.1418 23.4474 48.1418 24.1574C48.1418 24.8674 48.2838 25.4922 48.5678 26.0318C48.866 26.5572 49.2494 26.9619 49.718 27.2459C50.2008 27.5299 50.712 27.6719 51.2516 27.6719C51.8054 27.6719 52.3237 27.537 52.8065 27.2672C53.2893 26.9832 53.6727 26.5856 53.9567 26.0744C54.2407 25.549 54.3827 24.9242 54.3827 24.2ZM61.8108 16.8941C61.2712 16.8941 60.8239 16.7308 60.4689 16.4042C60.1281 16.0634 59.9577 15.6445 59.9577 15.1475C59.9577 14.6505 60.1281 14.2387 60.4689 13.9121C60.8239 13.5713 61.2712 13.4009 61.8108 13.4009C62.3362 13.4009 62.7693 13.5713 63.1101 13.9121C63.4509 14.2387 63.6213 14.6505 63.6213 15.1475C63.6213 15.6445 63.4509 16.0634 63.1101 16.4042C62.7693 16.7308 62.3362 16.8941 61.8108 16.8941ZM63.2805 32.0384C63.2805 33.3448 62.9539 34.282 62.3007 34.85C61.6617 35.4322 60.7387 35.7233 59.5317 35.7233H58.2111V33.1886H59.0631C59.5175 33.1886 59.837 33.0963 60.0216 32.9117C60.2062 32.7413 60.2985 32.4573 60.2985 32.0597V18.2999H63.2805V32.0384ZM71.4665 30.2918C70.3305 30.2918 69.3081 30.0433 68.3993 29.5463C67.4905 29.0351 66.7734 28.318 66.248 27.395C65.7368 26.472 65.4812 25.407 65.4812 24.2C65.4812 22.993 65.7439 21.928 66.2693 21.005C66.8089 20.082 67.5402 19.372 68.4632 18.875C69.3862 18.3638 70.4157 18.1082 71.5517 18.1082C72.6877 18.1082 73.7172 18.3638 74.6402 18.875C75.5632 19.372 76.2874 20.082 76.8128 21.005C77.3524 21.928 77.6222 22.993 77.6222 24.2C77.6222 25.407 77.3453 26.472 76.7915 27.395C76.2519 28.318 75.5135 29.0351 74.5763 29.5463C73.6533 30.0433 72.6167 30.2918 71.4665 30.2918ZM71.4665 27.6932C72.0061 27.6932 72.5102 27.5654 72.9788 27.3098C73.4616 27.04 73.845 26.6424 74.129 26.117C74.413 25.5916 74.555 24.9526 74.555 24.2C74.555 23.0782 74.2568 22.2191 73.6604 21.6227C73.0782 21.0121 72.3611 20.7068 71.5091 20.7068C70.6571 20.7068 69.94 21.0121 69.3578 21.6227C68.7898 22.2191 68.5058 23.0782 68.5058 24.2C68.5058 25.3218 68.7827 26.188 69.3365 26.7986C69.9045 27.395 70.6145 27.6932 71.4665 27.6932ZM82.7916 20.1317C83.175 19.5069 83.672 19.017 84.2826 18.662C84.9074 18.307 85.6174 18.1295 86.4126 18.1295V21.2606H85.6245C84.6873 21.2606 83.9773 21.4807 83.4945 21.9209C83.0259 22.3611 82.7916 23.1279 82.7916 24.2213V30.1001H79.8096V18.2999H82.7916V20.1317ZM89.9334 16.8941C89.408 16.8941 88.9678 16.7308 88.6128 16.4042C88.272 16.0634 88.1016 15.6445 88.1016 15.1475C88.1016 14.6505 88.272 14.2387 88.6128 13.9121C88.9678 13.5713 89.408 13.4009 89.9334 13.4009C90.4588 13.4009 90.8919 13.5713 91.2327 13.9121C91.5877 14.2387 91.7652 14.6505 91.7652 15.1475C91.7652 15.6445 91.5877 16.0634 91.2327 16.4042C90.8919 16.7308 90.4588 16.8941 89.9334 16.8941ZM91.4031 18.2999V30.1001H88.4211V18.2999H91.4031ZM97.8212 20.7494V26.4578C97.8212 26.8554 97.9135 27.1465 98.0981 27.3311C98.2969 27.5015 98.6235 27.5867 99.0779 27.5867H100.462V30.1001H98.588C96.0746 30.1001 94.8179 28.8789 94.8179 26.4365V20.7494H93.4121V18.2999H94.8179V15.3818H97.8212V18.2999H100.462V20.7494H97.8212ZM113.896 18.2999L106.59 35.6807H103.417L105.973 29.8019L101.244 18.2999H104.588L107.634 26.543L110.723 18.2999H113.896Z" fill="white"/>
</g>
<defs>
<filter id="filter0_d_58_357" x="0.284766" y="0" width="138.7" height="60.4" filterUnits="userSpaceOnUse" color-interpolation-filters="sRGB">
<feFlood flood-opacity="0" result="BackgroundImageFix"/>
<feColorMatrix in="SourceAlpha" type="matrix" values="0 0 0 0 0 0 0 0 0 0 0 0 0 0 0 0 0 0 127 0" result="hardAlpha"/>
<feOffset dy="7.1"/>
<feGaussianBlur stdDeviation="3.55"/>
<feComposite in2="hardAlpha" operator="out"/>
<feColorMatrix type="matrix" values="0 0 0 0 0.518859 0 0 0 0 0.260982 0 0 0 0 0.0338036 0 0 0 0.17 0"/>
<feBlend mode="normal" in2="BackgroundImageFix" result="effect1_dropShadow_58_357"/>
<feBlend mode="normal" in="SourceGraphic" in2="effect1_dropShadow_58_357" result="shape"/>
</filter>
<linearGradient id="paint0_linear_58_357" x1="10.6734" y1="26.3997" x2="130.006" y2="26.3997" gradientUnits="userSpaceOnUse">
<stop stop-color="#00C2FF"/>
<stop offset="1" stop-color="#0093C2"/>
</linearGradient>
</defs>
</svg>
