<svg width="65" height="65" viewBox="0 0 65 65" fill="none" xmlns="http://www.w3.org/2000/svg">
<rect x="0.600098" y="0.547363" width="64" height="64" rx="32" fill="url(#paint0_linear_27_484)"/>
<path d="M32.6001 30.8807C33.5168 30.8807 34.3018 30.5546 34.9551 29.9024C35.6084 29.2501 35.9345 28.4651 35.9334 27.5474C35.9323 26.6296 35.6062 25.8451 34.9551 25.194C34.304 24.5429 33.519 24.2163 32.6001 24.214C31.6812 24.2118 30.8968 24.5385 30.2468 25.194C29.5968 25.8496 29.2701 26.634 29.2668 27.5474C29.2634 28.4607 29.5901 29.2457 30.2468 29.9024C30.9034 30.559 31.6879 30.8851 32.6001 30.8807ZM24.2668 30.5474V24.214H20.9334V25.8807C20.9334 26.9363 21.239 27.8879 21.8501 28.7357C22.4612 29.5835 23.2668 30.1874 24.2668 30.5474ZM40.9334 30.5474C41.9334 30.1863 42.739 29.5818 43.3501 28.734C43.9612 27.8863 44.2668 26.9351 44.2668 25.8807V24.214H40.9334V30.5474ZM30.9334 44.214V39.0474C29.5723 38.7418 28.3573 38.1657 27.2884 37.319C26.2195 36.4724 25.4345 35.4096 24.9334 34.1307C22.8501 33.8807 21.1073 32.9713 19.7051 31.4024C18.3029 29.8335 17.6012 27.9929 17.6001 25.8807V24.214C17.6001 23.2974 17.9268 22.5129 18.5801 21.8607C19.2334 21.2085 20.0179 20.8818 20.9334 20.8807H24.2668C24.2668 19.964 24.5934 19.1796 25.2468 18.5274C25.9001 17.8751 26.6845 17.5485 27.6001 17.5474H37.6001C38.5168 17.5474 39.3018 17.874 39.9551 18.5274C40.6084 19.1807 40.9345 19.9651 40.9334 20.8807H44.2668C45.1834 20.8807 45.9684 21.2074 46.6218 21.8607C47.2751 22.514 47.6012 23.2985 47.6001 24.214V25.8807C47.6001 27.9918 46.8984 29.8324 45.4951 31.4024C44.0918 32.9724 42.349 33.8818 40.2668 34.1307C39.7668 35.4085 38.9823 36.4713 37.9134 37.319C36.8445 38.1668 35.629 38.7429 34.2668 39.0474V44.214H39.2668C39.739 44.214 40.1351 44.374 40.4551 44.694C40.7751 45.014 40.9345 45.4096 40.9334 45.8807C40.9323 46.3518 40.7723 46.7479 40.4534 47.069C40.1345 47.3901 39.739 47.5496 39.2668 47.5474H25.9334C25.4612 47.5474 25.0657 47.3874 24.7468 47.0674C24.4279 46.7474 24.2679 46.3518 24.2668 45.8807C24.2657 45.4096 24.4257 45.014 24.7468 44.694C25.0679 44.374 25.4634 44.214 25.9334 44.214H30.9334Z" fill="white"/>
<defs>
<linearGradient id="paint0_linear_27_484" x1="24.6001" y1="18.1474" x2="40.6001" y2="43.7474" gradientUnits="userSpaceOnUse">
<stop stop-color="#2B91FF"/>
<stop offset="1" stop-color="#165EC1"/>
</linearGradient>
</defs>
</svg>
