<svg width="65" height="65" viewBox="0 0 65 65" fill="none" xmlns="http://www.w3.org/2000/svg">
<rect x="0.400391" y="0.547363" width="64" height="64" rx="32" fill="url(#paint0_linear_27_480)"/>
<path d="M48.5837 46.3642L46.2171 48.7309C45.9048 49.0413 45.4824 49.2155 45.0421 49.2155C44.6018 49.2155 44.1793 49.0413 43.8671 48.7309L24.0671 28.9642C23.5251 29.1214 22.9646 29.2055 22.4004 29.2142C21.3392 29.2134 20.2936 28.9594 19.3504 28.4731C18.4072 27.9869 17.5937 27.2825 16.9775 26.4186C16.3613 25.5546 15.9603 24.5561 15.8078 23.5059C15.6552 22.4558 15.7555 21.3844 16.1004 20.3809L20.3337 24.6142L21.2171 23.7309L23.5837 21.3642L24.4671 20.4809L20.2337 16.2475C21.2373 15.9026 22.3087 15.8023 23.3588 15.9549C24.409 16.1074 25.4075 16.5085 26.2715 17.1246C27.1354 17.7408 27.8398 18.5543 28.326 19.4975C28.8123 20.4407 29.0663 21.4864 29.0671 22.5475C29.0584 23.1117 28.9743 23.6723 28.8171 24.2142L48.5837 44.0142C48.8942 44.3265 49.0684 44.7489 49.0684 45.1892C49.0684 45.6295 48.8942 46.0519 48.5837 46.3642ZM16.2171 44.0142C15.9067 44.3265 15.7324 44.7489 15.7324 45.1892C15.7324 45.6295 15.9067 46.0519 16.2171 46.3642L18.5837 48.7309C18.896 49.0413 19.3184 49.2155 19.7587 49.2155C20.1991 49.2155 20.6215 49.0413 20.9337 48.7309L30.0504 39.6309L25.3337 34.9142M45.7337 15.8809L39.0671 19.2142V22.5475L35.4504 26.1642L38.7837 29.4975L42.4004 25.8809H45.7337L49.0671 19.2142L45.7337 15.8809Z" fill="white"/>
<defs>
<linearGradient id="paint0_linear_27_480" x1="24.4004" y1="18.1474" x2="40.4004" y2="43.7474" gradientUnits="userSpaceOnUse">
<stop stop-color="#2B91FF"/>
<stop offset="1" stop-color="#165EC1"/>
</linearGradient>
</defs>
</svg>
