<svg width="65" height="65" viewBox="0 0 65 65" fill="none" xmlns="http://www.w3.org/2000/svg">
<rect x="0.200195" y="0.547363" width="64" height="64" rx="32" fill="url(#paint0_linear_27_482)"/>
<path d="M25.5332 32.5472C27.3013 32.5472 28.997 31.8448 30.2472 30.5946C31.4975 29.3443 32.1999 27.6486 32.1999 25.8805C32.1999 24.1124 31.4975 22.4167 30.2472 21.1665C28.997 19.9162 27.3013 19.2139 25.5332 19.2139C23.7651 19.2139 22.0694 19.9162 20.8192 21.1665C19.5689 22.4167 18.8665 24.1124 18.8665 25.8805C18.8665 27.6486 19.5689 29.3443 20.8192 30.5946C22.0694 31.8448 23.7651 32.5472 25.5332 32.5472ZM40.5332 32.5472C41.8593 32.5472 43.1311 32.0204 44.0687 31.0827C45.0064 30.1451 45.5332 28.8733 45.5332 27.5472C45.5332 26.2211 45.0064 24.9493 44.0687 24.0117C43.1311 23.074 41.8593 22.5472 40.5332 22.5472C39.2071 22.5472 37.9354 23.074 36.9977 24.0117C36.06 24.9493 35.5332 26.2211 35.5332 27.5472C35.5332 28.8733 36.06 30.1451 36.9977 31.0827C37.9354 32.0204 39.2071 32.5472 40.5332 32.5472ZM19.6999 35.8805C17.3999 35.8805 15.5332 37.7472 15.5332 40.0472C15.5332 40.0472 15.5332 47.5472 25.5332 47.5472C33.4599 47.5472 35.1032 42.8339 35.4432 40.8805C35.5332 40.3705 35.5332 40.0472 35.5332 40.0472C35.5332 37.7472 33.6665 35.8805 31.3665 35.8805H19.6999ZM38.8532 41.2139C38.8465 41.3472 38.8332 41.505 38.8132 41.6872C38.6293 43.0616 38.1518 44.3803 37.4132 45.5539C38.2965 45.7572 39.3265 45.8805 40.5299 45.8805C48.8632 45.8805 48.8632 40.0472 48.8632 40.0472C48.8632 37.7472 46.9965 35.8805 44.6965 35.8805H37.5999C38.3999 37.0739 38.8632 38.5039 38.8632 40.0472V40.8805L38.8532 41.2139Z" fill="white"/>
<defs>
<linearGradient id="paint0_linear_27_482" x1="24.2002" y1="18.1474" x2="40.2002" y2="43.7474" gradientUnits="userSpaceOnUse">
<stop stop-color="#2B91FF"/>
<stop offset="1" stop-color="#165EC1"/>
</linearGradient>
</defs>
</svg>
