<svg width="49" height="49" viewBox="0 0 49 49" fill="none" xmlns="http://www.w3.org/2000/svg">
<path d="M16.333 24.5474C18.4547 24.5474 20.4896 23.7045 21.9899 22.2042C23.4902 20.7039 24.333 18.6691 24.333 16.5474C24.333 14.4256 23.4902 12.3908 21.9899 10.8905C20.4896 9.39022 18.4547 8.54736 16.333 8.54736C14.2113 8.54736 12.1764 9.39022 10.6762 10.8905C9.17586 12.3908 8.33301 14.4256 8.33301 16.5474C8.33301 18.6691 9.17586 20.7039 10.6762 22.2042C12.1764 23.7045 14.2113 24.5474 16.333 24.5474ZM34.333 24.5474C35.9243 24.5474 37.4504 23.9152 38.5756 22.79C39.7009 21.6648 40.333 20.1387 40.333 18.5474C40.333 16.9561 39.7009 15.4299 38.5756 14.3047C37.4504 13.1795 35.9243 12.5474 34.333 12.5474C32.7417 12.5474 31.2156 13.1795 30.0904 14.3047C28.9651 15.4299 28.333 16.9561 28.333 18.5474C28.333 20.1387 28.9651 21.6648 30.0904 22.79C31.2156 23.9152 32.7417 24.5474 34.333 24.5474ZM9.33301 28.5474C6.57301 28.5474 4.33301 30.7874 4.33301 33.5474C4.33301 33.5474 4.33301 42.5474 16.333 42.5474C25.845 42.5474 27.817 36.8914 28.225 34.5474C28.333 33.9354 28.333 33.5474 28.333 33.5474C28.333 30.7874 26.093 28.5474 23.333 28.5474H9.33301ZM32.317 34.9474C32.309 35.1074 32.293 35.2967 32.269 35.5154C32.0483 37.1646 31.4753 38.7471 30.589 40.1554C31.649 40.3994 32.885 40.5474 34.329 40.5474C44.329 40.5474 44.329 33.5474 44.329 33.5474C44.329 30.7874 42.089 28.5474 39.329 28.5474H30.813C31.773 29.9794 32.329 31.6954 32.329 33.5474V34.5474L32.317 34.9474Z" fill="#00AAD2"/>
</svg>
