<svg width="48" height="49" viewBox="0 0 48 49" fill="none" xmlns="http://www.w3.org/2000/svg">
<path d="M24 22.5474C25.1 22.5474 26.042 22.156 26.826 21.3734C27.61 20.5907 28.0013 19.6487 28 18.5474C27.9987 17.446 27.6073 16.5047 26.826 15.7234C26.0447 14.942 25.1027 14.55 24 14.5474C22.8973 14.5447 21.956 14.9367 21.176 15.7234C20.396 16.51 20.004 17.4514 20 18.5474C19.996 19.6434 20.388 20.5854 21.176 21.3734C21.964 22.1614 22.9053 22.5527 24 22.5474ZM14 22.1474V14.5474H10V16.5474C10 17.814 10.3667 18.956 11.1 19.9734C11.8333 20.9907 12.8 21.7154 14 22.1474ZM34 22.1474C35.2 21.714 36.1667 20.9887 36.9 19.9714C37.6333 18.954 38 17.8127 38 16.5474V14.5474H34V22.1474ZM22 38.5474V32.3474C20.3667 31.9807 18.9087 31.2894 17.626 30.2734C16.3433 29.2574 15.4013 27.982 14.8 26.4474C12.3 26.1474 10.2087 25.056 8.526 23.1734C6.84333 21.2907 6.00133 19.082 6 16.5474V14.5474C6 13.4474 6.392 12.506 7.176 11.7234C7.96 10.9407 8.90133 10.5487 10 10.5474H14C14 9.44736 14.392 8.50603 15.176 7.72336C15.96 6.9407 16.9013 6.5487 18 6.54736H30C31.1 6.54736 32.042 6.93936 32.826 7.72336C33.61 8.50736 34.0013 9.4487 34 10.5474H38C39.1 10.5474 40.042 10.9394 40.826 11.7234C41.61 12.5074 42.0013 13.4487 42 14.5474V16.5474C42 19.0807 41.158 21.2894 39.474 23.1734C37.79 25.0574 35.6987 26.1487 33.2 26.4474C32.6 27.9807 31.6587 29.256 30.376 30.2734C29.0933 31.2907 27.6347 31.982 26 32.3474V38.5474H32C32.5667 38.5474 33.042 38.7394 33.426 39.1234C33.81 39.5074 34.0013 39.982 34 40.5474C33.9987 41.1127 33.8067 41.588 33.424 41.9734C33.0413 42.3587 32.5667 42.55 32 42.5474H16C15.4333 42.5474 14.9587 42.3554 14.576 41.9714C14.1933 41.5874 14.0013 41.1127 14 40.5474C13.9987 39.982 14.1907 39.5074 14.576 39.1234C14.9613 38.7394 15.436 38.5474 16 38.5474H22Z" fill="#081052"/>
</svg>
