<svg width="254" height="47" viewBox="0 0 254 47" fill="none" xmlns="http://www.w3.org/2000/svg">
<path d="M0 23.0769C0 10.3319 10.3319 0 23.0769 0H230.308C243.053 0 253.385 10.3319 253.385 23.0769C253.385 35.822 243.053 46.1538 230.308 46.1538H23.0769C10.3319 46.1538 0 35.822 0 23.0769Z" fill="url(#paint0_linear_58_366)"/>
<path d="M24.3107 30.2255C23.2775 30.2255 22.3433 30.0486 21.5083 29.6948C20.6873 29.3409 20.0363 28.8314 19.555 28.1661C19.0738 27.5009 18.8261 26.7154 18.812 25.8095H21.9966C22.039 26.4181 22.2513 26.8994 22.6335 27.2532C23.0298 27.6071 23.5677 27.784 24.247 27.784C24.9406 27.784 25.4855 27.6212 25.8818 27.2957C26.2781 26.956 26.4763 26.5172 26.4763 25.9794C26.4763 25.5406 26.3418 25.1797 26.0729 24.8966C25.804 24.6135 25.4643 24.3941 25.0538 24.2384C24.6575 24.0686 24.1055 23.8846 23.3978 23.6864C22.4353 23.4034 21.6498 23.1274 21.0412 22.8584C20.4467 22.5754 19.9301 22.1578 19.4913 21.6058C19.0667 21.0397 18.8544 20.2895 18.8544 19.3554C18.8544 18.4778 19.0738 17.7135 19.5126 17.0624C19.9513 16.4114 20.567 15.916 21.3597 15.5763C22.1523 15.2224 23.0581 15.0455 24.0772 15.0455C25.6058 15.0455 26.8443 15.4206 27.7926 16.1708C28.755 16.9068 29.2858 17.94 29.3849 19.2704H26.1153C26.087 18.7609 25.8677 18.3434 25.4572 18.0178C25.0609 17.6781 24.5301 17.5083 23.8649 17.5083C23.2846 17.5083 22.8175 17.6569 22.4637 17.9541C22.124 18.2514 21.9541 18.6831 21.9541 19.2492C21.9541 19.6455 22.0815 19.9781 22.3363 20.2471C22.6052 20.5018 22.9307 20.7141 23.3129 20.884C23.7092 21.0397 24.2612 21.2237 24.9689 21.436C25.9313 21.7191 26.7169 22.0021 27.3255 22.2852C27.9341 22.5683 28.4578 22.9929 28.8966 23.5591C29.3353 24.1252 29.5547 24.8683 29.5547 25.7883C29.5547 26.5809 29.3495 27.3169 28.939 27.9963C28.5286 28.6757 27.927 29.2206 27.1344 29.6311C26.3418 30.0274 25.4006 30.2255 24.3107 30.2255ZM43.2353 18.3151V30.0769H40.2418V28.5908C39.8596 29.1003 39.3572 29.5037 38.7344 29.8009C38.1258 30.084 37.4605 30.2255 36.7387 30.2255C35.8187 30.2255 35.0048 30.0344 34.2972 29.6523C33.5895 29.256 33.0304 28.6828 32.6199 27.9326C32.2236 27.1683 32.0255 26.2624 32.0255 25.2151V18.3151H34.9978V24.7904C34.9978 25.7246 35.2313 26.4464 35.6984 26.956C36.1655 27.4514 36.8024 27.6991 37.6092 27.6991C38.4301 27.6991 39.0741 27.4514 39.5412 26.956C40.0082 26.4464 40.2418 25.7246 40.2418 24.7904V18.3151H43.2353ZM49.1403 20.1409C49.5224 19.5181 50.0178 19.0298 50.6264 18.676C51.2492 18.3221 51.9569 18.1452 52.7495 18.1452V21.2661H51.964C51.0298 21.2661 50.3221 21.4855 49.8409 21.9243C49.3738 22.3631 49.1403 23.1274 49.1403 24.2172V30.0769H46.168V18.3151H49.1403V20.1409ZM57.7238 20.0135C58.106 19.4757 58.6297 19.0298 59.2949 18.676C59.9743 18.308 60.7457 18.124 61.609 18.124C62.614 18.124 63.5198 18.3717 64.3266 18.8671C65.1475 19.3624 65.7915 20.0701 66.2586 20.9901C66.7398 21.896 66.9804 22.9504 66.9804 24.1535C66.9804 25.3566 66.7398 26.4252 66.2586 27.3594C65.7915 28.2794 65.1475 28.9941 64.3266 29.5037C63.5198 30.0132 62.614 30.268 61.609 30.268C60.7457 30.268 59.9814 30.0911 59.3161 29.7372C58.665 29.3834 58.1343 28.9375 57.7238 28.3997V35.6818H54.7515V18.3151H57.7238V20.0135ZM63.9444 24.1535C63.9444 23.4458 63.7958 22.8372 63.4986 22.3277C63.2155 21.804 62.8334 21.4077 62.3521 21.1388C61.885 20.8698 61.3755 20.7354 60.8235 20.7354C60.2857 20.7354 59.7761 20.8769 59.2949 21.16C58.8278 21.4289 58.4457 21.8252 58.1484 22.3489C57.8654 22.8726 57.7238 23.4883 57.7238 24.196C57.7238 24.9037 57.8654 25.5194 58.1484 26.0431C58.4457 26.5668 58.8278 26.9701 59.2949 27.2532C59.7761 27.5221 60.2857 27.6566 60.8235 27.6566C61.3755 27.6566 61.885 27.5151 62.3521 27.232C62.8334 26.9489 63.2155 26.5455 63.4986 26.0218C63.7958 25.4981 63.9444 24.8754 63.9444 24.1535ZM72.1126 20.1409C72.4948 19.5181 72.9902 19.0298 73.5988 18.676C74.2216 18.3221 74.9293 18.1452 75.7219 18.1452V21.2661H74.9363C74.0022 21.2661 73.2945 21.4855 72.8133 21.9243C72.3462 22.3631 72.1126 23.1274 72.1126 24.2172V30.0769H69.1403V18.3151H72.1126V20.1409ZM79.2312 16.9138C78.7076 16.9138 78.2688 16.7511 77.9149 16.4255C77.5752 16.0858 77.4054 15.6683 77.4054 15.1729C77.4054 14.6775 77.5752 14.2671 77.9149 13.9415C78.2688 13.6018 78.7076 13.432 79.2312 13.432C79.7549 13.432 80.1866 13.6018 80.5263 13.9415C80.8802 14.2671 81.0571 14.6775 81.0571 15.1729C81.0571 15.6683 80.8802 16.0858 80.5263 16.4255C80.1866 16.7511 79.7549 16.9138 79.2312 16.9138ZM80.6962 18.3151V30.0769H77.7239V18.3151H80.6962ZM88.1337 30.268C87.1713 30.268 86.3079 30.0981 85.5436 29.7584C84.7793 29.4046 84.1707 28.9304 83.7177 28.336C83.279 27.7415 83.0384 27.0834 82.9959 26.3615H85.9894C86.046 26.8144 86.2654 27.1895 86.6476 27.4868C87.0439 27.784 87.5322 27.9326 88.1125 27.9326C88.6787 27.9326 89.1174 27.8194 89.4288 27.5929C89.7544 27.3664 89.9171 27.0763 89.9171 26.7224C89.9171 26.3403 89.719 26.0572 89.3227 25.8732C88.9405 25.6751 88.3248 25.4628 87.4756 25.2363C86.598 25.024 85.8762 24.8046 85.31 24.5781C84.758 24.3517 84.2768 24.0049 83.8664 23.5378C83.47 23.0708 83.2719 22.4409 83.2719 21.6483C83.2719 20.9972 83.4559 20.4028 83.8239 19.8649C84.206 19.3271 84.7439 18.9024 85.4374 18.5911C86.1451 18.2797 86.9731 18.124 87.9214 18.124C89.3227 18.124 90.4408 18.4778 91.2759 19.1855C92.111 19.8791 92.571 20.8203 92.6559 22.0092H89.811C89.7685 21.5421 89.5704 21.1741 89.2165 20.9052C88.8768 20.6221 88.4168 20.4806 87.8365 20.4806C87.2987 20.4806 86.8811 20.5797 86.5839 20.7778C86.3008 20.976 86.1593 21.252 86.1593 21.6058C86.1593 22.0021 86.3574 22.3064 86.7537 22.5188C87.15 22.7169 87.7657 22.9221 88.6008 23.1344C89.45 23.3468 90.1507 23.5661 90.7027 23.7926C91.2547 24.0191 91.7288 24.3729 92.1251 24.8541C92.5356 25.3212 92.7479 25.944 92.762 26.7224C92.762 27.4018 92.571 28.0104 92.1888 28.5483C91.8208 29.0861 91.283 29.5108 90.5753 29.8221C89.8817 30.1194 89.0679 30.268 88.1337 30.268ZM96.7093 16.9138C96.1856 16.9138 95.7469 16.7511 95.393 16.4255C95.0533 16.0858 94.8835 15.6683 94.8835 15.1729C94.8835 14.6775 95.0533 14.2671 95.393 13.9415C95.7469 13.6018 96.1856 13.432 96.7093 13.432C97.233 13.432 97.6647 13.6018 98.0044 13.9415C98.3582 14.2671 98.5352 14.6775 98.5352 15.1729C98.5352 15.6683 98.3582 16.0858 98.0044 16.4255C97.6647 16.7511 97.233 16.9138 96.7093 16.9138ZM98.1742 18.3151V30.0769H95.2019V18.3151H98.1742ZM107.629 18.1452C109.03 18.1452 110.162 18.5911 111.026 19.4828C111.889 20.3603 112.321 21.5917 112.321 23.1769V30.0769H109.348V23.5803C109.348 22.6461 109.115 21.9314 108.648 21.436C108.181 20.9264 107.544 20.6717 106.737 20.6717C105.916 20.6717 105.265 20.9264 104.784 21.436C104.317 21.9314 104.083 22.6461 104.083 23.5803V30.0769H101.111V18.3151H104.083V19.78C104.479 19.2704 104.982 18.8741 105.591 18.5911C106.213 18.2938 106.893 18.1452 107.629 18.1452ZM119.754 18.124C120.632 18.124 121.403 18.3009 122.068 18.6548C122.734 18.9944 123.257 19.4403 123.64 19.9923V18.3151H126.633V30.1618C126.633 31.2517 126.414 32.2212 125.975 33.0704C125.536 33.9338 124.878 34.6132 124 35.1086C123.123 35.6181 122.061 35.8729 120.816 35.8729C119.146 35.8729 117.773 35.4837 116.697 34.7052C115.636 33.9268 115.034 32.8652 114.892 31.5206H117.844C117.999 32.0584 118.332 32.4831 118.841 32.7944C119.365 33.12 119.995 33.2828 120.731 33.2828C121.594 33.2828 122.295 33.0209 122.833 32.4972C123.371 31.9877 123.64 31.2092 123.64 30.1618V28.336C123.257 28.888 122.727 29.348 122.047 29.716C121.382 30.084 120.618 30.268 119.754 30.268C118.764 30.268 117.858 30.0132 117.037 29.5037C116.216 28.9941 115.565 28.2794 115.084 27.3594C114.616 26.4252 114.383 25.3566 114.383 24.1535C114.383 22.9646 114.616 21.9101 115.084 20.9901C115.565 20.0701 116.209 19.3624 117.016 18.8671C117.836 18.3717 118.749 18.124 119.754 18.124ZM123.64 24.196C123.64 23.4741 123.498 22.8584 123.215 22.3489C122.932 21.8252 122.55 21.4289 122.068 21.16C121.587 20.8769 121.071 20.7354 120.519 20.7354C119.967 20.7354 119.457 20.8698 118.99 21.1388C118.523 21.4077 118.141 21.804 117.844 22.3277C117.56 22.8372 117.419 23.4458 117.419 24.1535C117.419 24.8612 117.56 25.484 117.844 26.0218C118.141 26.5455 118.523 26.9489 118.99 27.232C119.471 27.5151 119.981 27.6566 120.519 27.6566C121.071 27.6566 121.587 27.5221 122.068 27.2532C122.55 26.9701 122.932 26.5738 123.215 26.0643C123.498 25.5406 123.64 24.9178 123.64 24.196ZM132.508 14.3661V30.0769H129.536V14.3661H132.508ZM146.697 18.3151L139.415 35.6394H136.252L138.799 29.7797L134.086 18.3151H137.419L140.455 26.5314L143.534 18.3151H146.697ZM164.165 19.8437C164.165 20.6363 163.974 21.3794 163.592 22.0729C163.224 22.7664 162.636 23.3255 161.83 23.7501C161.037 24.1748 160.032 24.3871 158.815 24.3871H156.331V30.0769H153.358V15.2578H158.815C159.961 15.2578 160.938 15.456 161.745 15.8523C162.551 16.2486 163.153 16.7935 163.549 17.4871C163.96 18.1806 164.165 18.9661 164.165 19.8437ZM158.687 21.988C159.508 21.988 160.117 21.804 160.513 21.436C160.91 21.0538 161.108 20.5231 161.108 19.8437C161.108 18.4 160.301 17.6781 158.687 17.6781H156.331V21.988H158.687ZM171.498 30.268C170.366 30.268 169.347 30.0203 168.441 29.5249C167.535 29.0154 166.82 28.3006 166.296 27.3806C165.787 26.4606 165.532 25.3991 165.532 24.196C165.532 22.9929 165.794 21.9314 166.318 21.0114C166.856 20.0914 167.584 19.3837 168.504 18.8883C169.424 18.3788 170.451 18.124 171.583 18.124C172.715 18.124 173.741 18.3788 174.661 18.8883C175.581 19.3837 176.303 20.0914 176.827 21.0114C177.365 21.9314 177.634 22.9929 177.634 24.196C177.634 25.3991 177.358 26.4606 176.806 27.3806C176.268 28.3006 175.532 29.0154 174.598 29.5249C173.678 30.0203 172.644 30.268 171.498 30.268ZM171.498 27.6778C172.036 27.6778 172.538 27.5504 173.005 27.2957C173.487 27.0268 173.869 26.6304 174.152 26.1068C174.435 25.5831 174.576 24.9461 174.576 24.196C174.576 23.0778 174.279 22.2215 173.685 21.6271C173.104 21.0184 172.39 20.7141 171.54 20.7141C170.691 20.7141 169.976 21.0184 169.396 21.6271C168.83 22.2215 168.547 23.0778 168.547 24.196C168.547 25.3141 168.823 26.1775 169.375 26.7861C169.941 27.3806 170.649 27.6778 171.498 27.6778ZM182.786 20.0135C183.168 19.4757 183.692 19.0298 184.357 18.676C185.037 18.308 185.808 18.124 186.672 18.124C187.676 18.124 188.582 18.3717 189.389 18.8671C190.21 19.3624 190.854 20.0701 191.321 20.9901C191.802 21.896 192.043 22.9504 192.043 24.1535C192.043 25.3566 191.802 26.4252 191.321 27.3594C190.854 28.2794 190.21 28.9941 189.389 29.5037C188.582 30.0132 187.676 30.268 186.672 30.268C185.808 30.268 185.044 30.0911 184.379 29.7372C183.728 29.3834 183.197 28.9375 182.786 28.3997V35.6818H179.814V18.3151H182.786V20.0135ZM189.007 24.1535C189.007 23.4458 188.858 22.8372 188.561 22.3277C188.278 21.804 187.896 21.4077 187.415 21.1388C186.948 20.8698 186.438 20.7354 185.886 20.7354C185.348 20.7354 184.839 20.8769 184.357 21.16C183.89 21.4289 183.508 21.8252 183.211 22.3489C182.928 22.8726 182.786 23.4883 182.786 24.196C182.786 24.9037 182.928 25.5194 183.211 26.0431C183.508 26.5668 183.89 26.9701 184.357 27.2532C184.839 27.5221 185.348 27.6566 185.886 27.6566C186.438 27.6566 186.948 27.5151 187.415 27.232C187.896 26.9489 188.278 26.5455 188.561 26.0218C188.858 25.4981 189.007 24.8754 189.007 24.1535ZM205.307 18.3151V30.0769H202.313V28.5908C201.931 29.1003 201.428 29.5037 200.806 29.8009C200.197 30.084 199.532 30.2255 198.81 30.2255C197.89 30.2255 197.076 30.0344 196.368 29.6523C195.661 29.256 195.102 28.6828 194.691 27.9326C194.295 27.1683 194.097 26.2624 194.097 25.2151V18.3151H197.069V24.7904C197.069 25.7246 197.303 26.4464 197.77 26.956C198.237 27.4514 198.874 27.6991 199.68 27.6991C200.501 27.6991 201.145 27.4514 201.612 26.956C202.079 26.4464 202.313 25.7246 202.313 24.7904V18.3151H205.307ZM211.211 14.3661V30.0769H208.239V14.3661H211.211ZM213.384 24.1535C213.384 22.9646 213.617 21.9101 214.084 20.9901C214.566 20.0701 215.21 19.3624 216.016 18.8671C216.837 18.3717 217.75 18.124 218.755 18.124C219.633 18.124 220.397 18.3009 221.048 18.6548C221.713 19.0086 222.244 19.4544 222.64 19.9923V18.3151H225.634V30.0769H222.64V28.3572C222.258 28.9092 221.728 29.3692 221.048 29.7372C220.383 30.0911 219.612 30.268 218.734 30.268C217.743 30.268 216.837 30.0132 216.016 29.5037C215.21 28.9941 214.566 28.2794 214.084 27.3594C213.617 26.4252 213.384 25.3566 213.384 24.1535ZM222.64 24.196C222.64 23.4741 222.499 22.8584 222.216 22.3489C221.933 21.8252 221.551 21.4289 221.069 21.16C220.588 20.8769 220.072 20.7354 219.52 20.7354C218.968 20.7354 218.458 20.8698 217.991 21.1388C217.524 21.4077 217.142 21.804 216.844 22.3277C216.561 22.8372 216.42 23.4458 216.42 24.1535C216.42 24.8612 216.561 25.484 216.844 26.0218C217.142 26.5455 217.524 26.9489 217.991 27.232C218.472 27.5151 218.982 27.6566 219.52 27.6566C220.072 27.6566 220.588 27.5221 221.069 27.2532C221.551 26.9701 221.933 26.5738 222.216 26.0643C222.499 25.5406 222.64 24.9178 222.64 24.196ZM231.509 20.1409C231.891 19.5181 232.387 19.0298 232.995 18.676C233.618 18.3221 234.326 18.1452 235.118 18.1452V21.2661H234.333C233.399 21.2661 232.691 21.4855 232.21 21.9243C231.743 22.3631 231.509 23.1274 231.509 24.2172V30.0769H228.537V18.3151H231.509V20.1409Z" fill="white"/>
<defs>
<linearGradient id="paint0_linear_58_366" x1="6.69318" y1="26.3733" x2="249.56" y2="26.3733" gradientUnits="userSpaceOnUse">
<stop stop-color="#FF66C4"/>
<stop offset="1" stop-color="#BD0074"/>
</linearGradient>
</defs>
</svg>
