<svg width="111" height="61" viewBox="0 0 111 61" fill="none" xmlns="http://www.w3.org/2000/svg">
<g filter="url(#filter0_d_58_361)">
<path d="M7.88477 23.1C7.88477 10.3422 18.227 0 30.9848 0H80.2848C93.0425 0 103.385 10.3422 103.385 23.1C103.385 35.8578 93.0425 46.2 80.2848 46.2H30.9848C18.227 46.2 7.88477 35.8578 7.88477 23.1Z" fill="url(#paint0_linear_58_361)" shape-rendering="crispEdges"/>
<path d="M37.248 15.2327V17.6396H33.2862V30.1001H30.3042V17.6396H26.3424V15.2327H37.248ZM42.4058 20.1317C42.7892 19.5069 43.2862 19.017 43.8968 18.662C44.5216 18.307 45.2316 18.1295 46.0268 18.1295V21.2606H45.2387C44.3015 21.2606 43.5915 21.4807 43.1087 21.9209C42.6401 22.3611 42.4058 23.1279 42.4058 24.2213V30.1001H39.4238V18.2999H42.4058V20.1317ZM49.5476 16.8941C49.0222 16.8941 48.582 16.7308 48.227 16.4042C47.8862 16.0634 47.7158 15.6445 47.7158 15.1475C47.7158 14.6505 47.8862 14.2387 48.227 13.9121C48.582 13.5713 49.0222 13.4009 49.5476 13.4009C50.073 13.4009 50.5061 13.5713 50.8469 13.9121C51.2019 14.2387 51.3794 14.6505 51.3794 15.1475C51.3794 15.6445 51.2019 16.0634 50.8469 16.4042C50.5061 16.7308 50.073 16.8941 49.5476 16.8941ZM51.0173 18.2999V30.1001H48.0353V18.2999H51.0173ZM58.8838 27.3524L61.8658 18.2999H65.0395L60.673 30.1001H57.052L52.7068 18.2999H55.9018L58.8838 27.3524ZM68.2267 16.8941C67.7013 16.8941 67.2611 16.7308 66.9061 16.4042C66.5653 16.0634 66.3949 15.6445 66.3949 15.1475C66.3949 14.6505 66.5653 14.2387 66.9061 13.9121C67.2611 13.5713 67.7013 13.4009 68.2267 13.4009C68.7521 13.4009 69.1852 13.5713 69.526 13.9121C69.881 14.2387 70.0585 14.6505 70.0585 15.1475C70.0585 15.6445 69.881 16.0634 69.526 16.4042C69.1852 16.7308 68.7521 16.8941 68.2267 16.8941ZM69.6964 18.2999V30.1001H66.7144V18.2999H69.6964ZM71.8759 24.1574C71.8759 22.9646 72.1102 21.9067 72.5788 20.9837C73.0616 20.0607 73.7077 19.3507 74.5171 18.8537C75.3407 18.3567 76.2566 18.1082 77.2648 18.1082C78.1452 18.1082 78.912 18.2857 79.5652 18.6407C80.2326 18.9957 80.7651 19.443 81.1627 19.9826V18.2999H84.166V30.1001H81.1627V28.3748C80.7793 28.9286 80.2468 29.3901 79.5652 29.7593C78.8978 30.1143 78.1239 30.2918 77.2435 30.2918C76.2495 30.2918 75.3407 30.0362 74.5171 29.525C73.7077 29.0138 73.0616 28.2967 72.5788 27.3737C72.1102 26.4365 71.8759 25.3644 71.8759 24.1574ZM81.1627 24.2C81.1627 23.4758 81.0207 22.8581 80.7367 22.3469C80.4527 21.8215 80.0693 21.4239 79.5865 21.1541C79.1037 20.8701 78.5854 20.7281 78.0316 20.7281C77.4778 20.7281 76.9666 20.863 76.498 21.1328C76.0294 21.4026 75.646 21.8002 75.3478 22.3256C75.0638 22.8368 74.9218 23.4474 74.9218 24.1574C74.9218 24.8674 75.0638 25.4922 75.3478 26.0318C75.646 26.5572 76.0294 26.9619 76.498 27.2459C76.9808 27.5299 77.492 27.6719 78.0316 27.6719C78.5854 27.6719 79.1037 27.537 79.5865 27.2672C80.0693 26.9832 80.4527 26.5856 80.7367 26.0744C81.0207 25.549 81.1627 24.9242 81.1627 24.2Z" fill="white"/>
</g>
<defs>
<filter id="filter0_d_58_361" x="0.784766" y="0" width="109.7" height="60.4" filterUnits="userSpaceOnUse" color-interpolation-filters="sRGB">
<feFlood flood-opacity="0" result="BackgroundImageFix"/>
<feColorMatrix in="SourceAlpha" type="matrix" values="0 0 0 0 0 0 0 0 0 0 0 0 0 0 0 0 0 0 127 0" result="hardAlpha"/>
<feOffset dy="7.1"/>
<feGaussianBlur stdDeviation="3.55"/>
<feComposite in2="hardAlpha" operator="out"/>
<feColorMatrix type="matrix" values="0 0 0 0 0.518859 0 0 0 0 0.260982 0 0 0 0 0.0338036 0 0 0 0.17 0"/>
<feBlend mode="normal" in2="BackgroundImageFix" result="effect1_dropShadow_58_361"/>
<feBlend mode="normal" in="SourceGraphic" in2="effect1_dropShadow_58_361" result="shape"/>
</filter>
<linearGradient id="paint0_linear_58_361" x1="10.4074" y1="26.3997" x2="101.943" y2="26.3997" gradientUnits="userSpaceOnUse">
<stop stop-color="#BB72FF"/>
<stop offset="1" stop-color="#8A2BE2"/>
</linearGradient>
</defs>
</svg>
